<svg xmlns="http://www.w3.org/2000/svg" width="121.94mm" height="121.97mm" viewBox="0 0 345.67 345.73">
  <g id="Ebene_2" data-name="Ebene 2">
    <g id="Ebene_1-2" data-name="Ebene 1">
      <g id="zW1qZU.tif">
        <g>
          <path d="M148.41,261.2h7.46v-6.39H170c0,2.12,0,4.25-.07,6.45-2.37.07-4.81.07-7.25.07v7.28h7.18c0-2.53,0-5,.07-7.35,9.29-.06,18.51-.06,28.07-.06v7.36h6.52V254.72h-6.15V233.08h6.19v-6.4c2.4-.46,4.7-.16,7-.22s4.65,0,7.3,0V212.37h7.51v-7.51h6.75v7.34H247c0-2.48,0-4.81,0-7.13s-.24-4.57.17-6.79h13.9v14.09h14.09v13.9h7.73v-7.33h6.35v7.35h7.51v14.25H275.18V233c-2.64,0-5,0-7.28,0a44.12,44.12,0,0,0-6.81.16v7.34h-6.65c-.09-2.46-.09-4.93-.09-7.54H247V219.06h-6.63v7.52h-14c0,2.48,0,4.8,0,7.13a45.71,45.71,0,0,0,.16,6.83h27.92c.08,4.6.08,9.21.08,14.08h6.57v6.58c2.66,0,5.09,0,7.58.06.07,2.37.07,4.81.07,7.25h6.34v-7.18c-2.22,0-4.35,0-6.41-.07-.07-2.18-.07-4.3-.07-6.64h-7.51V240.54h14.09v14.08h7.51V261h6.57v7.68h-6.57v6.57H254.52v-6.57H247V261.2H232.84c-.08-4.65-.08-9.3-.08-14.09-2.48,0-4.8,0-7.13,0s-4.57.24-7-.21v-6.25h-6.2v20.43h6.48v-6.3h7.56v6.43h6.34c.08,4.6.08,9.21.08,14.08h7.51v7.51c-2.63,0-5,0-7.27,0a44.23,44.23,0,0,1-7-.19V268.71c-2.47,0-4.79,0-7.11,0a47.16,47.16,0,0,0-6.66.13v6.44h6.44v14c7.4.24,14.5-.16,21.57.25v7.34H226.35v6.57h-7.69v-6.74h-6.4c0-2.49,0-4.82,0-7.14s.25-4.56-.18-6.78H198.18v-7.51h-7.52v-6.57c-2.63,0-4.95,0-7.27,0a45.41,45.41,0,0,0-6.81.16c0,2.34,0,4.37-.07,6.47-2.06.07-4.19.07-6.3.07v7.27h6.24c0-2.53,0-5,.06-7.34,4.76-.07,9.46-.07,14.15-.07v7.51h7.52v6.6h-7.32v13.94h7.43V297h6.63v6.6h7.4V311H219v6.63h7.4v7.38H190.66c0-2.51,0-5,.08-7.58,4.55-.06,9.17-.06,13.81-.06v-6.36H190.81c0,2.21,0,4.35-.07,6.42-2.19.06-4.31.06-6.65.06v7.52h-7.51v-7.42h-14v7.42h-6.69v-7.52h-7.51V303.45h-6.57v-6.74h6.4v-7.35c-2.48,0-4.8,0-7.12,0a42.8,42.8,0,0,1-6.8-.17v-6.39h21.6c0-2.62,0-4.94,0-7.26a46.92,46.92,0,0,0-.16-6.82h-7.34Zm14.16,49.6h21.52V290.09a.89.89,0,0,0-.15-.4c-.09-.13-.22-.22-.17-.17h-21.2ZM261,219.1H254.5c.09,2.56-.12,5,.12,7.2H261Zm-14.16,35.44v-7.19h-6.26v7.19Z"/>
          <path d="M169.94,218.88c.07,2.5.07,4.94.07,7.57H155.92V212.53h-7.51V190.77H156c-.21-2.4.19-4.52-.29-6.57h-7.29v-7.33H142v-6.59h6.25v-7.52h7.67c0-2.45,0-4.59.07-6.8,2.06-.07,4.19-.07,6.3-.07v-7.27h-6.24c0,2.53,0,5-.06,7.34-2.4.07-4.73.07-7.38.07v-7.45H134.44v-14h7.4v-6.71h6.57v-7.51h7.51v7.51h6.57v6.76H156.1v7.32h33.84a.79.79,0,0,1,.4.15,2,2,0,0,1,.32.33v6.09H176.5c.23,2.71-.14,5.14.25,7.51h13.91v14.08h7.52V184.2h6.57v14.08H184.32v20.5h6.53v-6.41h21.41v6.37c-4.54.5-9.13,0-14,.3v7.31h-14V233h-7.65V218.94c-2.32,0-4.45,0-6.64-.06-.07-2.07-.07-4.2-.07-6.31H162.6v6.24C165.13,218.81,167.57,218.81,169.94,218.88ZM162.57,184H184.1c0-7.25.07-14.35-.07-21.28H162.57Zm13.86,7H170v7.31H156.1v6.45h20.33Z"/>
          <path d="M296.77,204.86v7.33a45.44,45.44,0,0,0,6.81.17c2.32,0,4.64,0,7.28,0v6.57h-21.6v-6.57H275.18v-7.61h-6.64v-6.48h-7.45V191H240.37v7.32h-14v-7.62h-7.61V184.2h-14v-7.53c7.41.06,14.51-.07,21.76.09v7.48c6.94-.18,13.73.17,20.5-.21v-7.34h7.51V184H275v-7.45H268.6v-6.41h6.58V162.6h7.61V156h6.47v-7.44h7.63c-.31-2.41.15-4.52-.34-6.58h-7.29v-7.51h14.09v-6.57h21.36c.5,2,.08,4.17.29,6.42h-7.43v7.54h-14v6.6h13.78V170h14v6.61H325v7.54h-7.55v6.59H275.28v7.34h13.8v6.75ZM289.34,184h21.53c-.05-7.25.07-14.35-.07-21.28H289.34Z"/>
          <path d="M331.52,325.05v6.48h-14v-6.36H311v6.45c-2.74,0-5.19,0-7.69-.07-.07-4.55-.07-9.17-.07-13.82h-6.36v13.74c2.21,0,4.35,0,6.43.08.06,2.41.06,4.76.06,7.41a47.26,47.26,0,0,1-6.84.16c-2.32.05-4.65,0-7.13,0v6.36h-6.57V331.67h6.36v-6.62h-14v-7.69h7.35V289.6H261.25v7.28c2.47,0,4.79,0,7.11,0A47.16,47.16,0,0,1,275,297v14.12H268.6v13.91h-7.51v-7.5c-7.1-.05-13.89,0-20.66-.05V311h20.82c-.46-2.71.25-5.15-.44-7.51H240.43v-6.57h14.09V282.79H282a.73.73,0,0,0,.38-.17,2.43,2.43,0,0,0,.3-.34v-7c2.19,0,4.38,0,6.64.06.08,2.39.08,4.83.08,7.25h13.83V275.4c-4.73,0-9.36,0-13.91-.06-.07-2.25-.07-4.44-.07-6.63h14.09V261.2h7.51v21.48h20.51v-7.4H339v7.33h6.41v6.59H339v7.68h-7.65v-7.4H317.61v14h7.33V311h-7.57c.2,2.41-.19,4.52.29,6.57h7.28v7.52ZM289.34,310.8h21.52c0-7,0-13.86,0-20.71a.79.79,0,0,0-.15-.4c-.08-.13-.21-.22-.16-.17h-21.2Z"/>
          <path d="M49.81,212.37V205H43.4v-6.6h6.27V191H35.87v13.62H21.8v-6.19H15.07c0-5,0-9.59.06-14.3,2.07-.07,4.2-.07,6.31-.07v-7.27H15.2c0,2.53,0,5-.07,7.34-2.39.07-4.72.07-7.37.07v-7.47H.14v-14H15.07V156H29.15v-7.51c4.7,0,9.39,0,14.15.07.07,2.37.07,4.8.07,7.24h6.34v-7.18c-2.21,0-4.34,0-6.41-.06-.06-2.22-.06-4.36-.06-6.82h6.57v-7.34H63.76c0,1.18.11,2.37.13,3.56s0,2.45,0,3.84H57.53V156h13.7v6.46H64.05v14h7.28v-6.3H78V162.6h7.54v7.51h6.58v6.58H85.49c0,2.63,0,4.95,0,7.26a47.13,47.13,0,0,1-.13,6.66H77.81v-6.24H71.38v6.44H63.9c0,9.35,0,18.38,0,27.41a.73.73,0,0,1-.15.4,2,2,0,0,1-.33.32H57.32v-6.57Zm7.36-28.25V162.59c-7.25.07-14.35-.09-21.29.09v21.44Zm-28.1-21.37H21.88V170h7.19Z"/>
          <path d="M85.49,268.71H91.9c.39-7.08,0-14.18.23-21.44H106c.4,6.91,0,14,.23,21.27h7.27v6.59H127.6v-6.42h20.81v6.57c-2.64,0-5,0-7.28,0a45.44,45.44,0,0,0-6.81.17v7.33h-6.73v28H113.67c0-2.47,0-4.8,0-7.12a44.42,44.42,0,0,1,.19-7h6.37c0-2.49,0-4.81,0-7.13s.24-4.57-.18-6.79c-7,0-13.76,0-20.54-.07-.06-2.37-.06-4.81-.06-7.24H92.17v7.18c2.53,0,5,0,7.34.06.07,2.26.07,4.45.07,6.64H85.49c0,2.65,0,5,0,7.3s-.25,4.57.21,7H99.47V311H71.53v13.8h6.58v-7.3c2.48,0,4.8,0,7.12,0a47.19,47.19,0,0,1,6.84.17v7.34H85.43c.21,2.4-.19,4.52.29,6.57h6.35v7.51H71.41V331.8a45.44,45.44,0,0,0-6.81-.17c-2.32-.05-4.64,0-7.12,0v-28H63.9v-6.75h7.48v-7.47h6.5v-6.54h-14V268.71H78v6.6c2.72-.1,5.14.11,7.51-.15Z"/>
          <path d="M184.09,71.52h-7.34v6.42h-6.59V71.67h-7.53V78h-6.58V64H141.84v-6.6h13.89V35.77h-7.41V21.9h-6.63v7.37H127.75V21.73c-2.72.1-5.14-.12-7.51.15v7.39h-6.75V21.75h-7.34V15.62a3.25,3.25,0,0,1,.33-.29.87.87,0,0,1,.41-.14h35V7.67h6.4v7.51h7.68v6.69c2.4-.3,4.52.15,6.57-.34V15.18H170c-.1-2.72.12-5.13-.14-7.51h-7.4V.32c7.09-.38,14.19,0,21.6-.21V7.67h-7.54c.1,2.72-.11,5.14.15,7.51h7.39v6.44h6.46v7.56h7.52v6.48h-7.19a42.28,42.28,0,0,0-.2,7c-.06,2.32,0,4.65,0,7.12h7.41V43.48h6.49V57.41h-13.9V64h-6.57Zm-21.44-35.6V57.44h20.72a.73.73,0,0,0,.4-.15c.13-.09.22-.22.16-.16V35.92Z"/>
          <path d="M49.66,49.84H.2V.6C4,0,37.35-.23,49.66.33Zm-42-6.65h35.6c0-6.09,0-12,0-17.93s.22-11.74-.16-17.43H7.64Z"/>
          <path d="M170,113.78h6.41v6.42H184v7.52h6.59v-7.25h28.14V106.26h14.23v7.52h-6.57v20.65c-4.7,0-9.39,0-14.16-.06-.06-2.07-.06-4.2-.06-6.31h-7.28v6.24c2.53,0,5,0,7.34.07.07,2.5.07,4.94.07,7.57h14.09v6.75h-7.51V156h-6.75v-7.68h-7.36v-6.44h-6.59V134.4H176.56v-6.54H162.49v-7.51H170Z"/>
          <path d="M345.52.32V49.77H297.23c-.66-3.76-.87-36-.29-49.45ZM303.43,43.19H339c0-6.09,0-12,0-17.93s.24-11.74-.16-17.42H303.43Z"/>
          <path d="M49.65,345.63H.2V297.34c3.76-.68,35.1-.9,49.45-.31ZM7.72,303.53v35.6H25.63c5.88,0,11.75,0,17.45,0V303.53Z"/>
          <path d="M35.8,268.64c-2.2.07-4.33.07-6.65.07V254.62h6.41v-7.51c2.77,0,5.22,0,7.74.07.07,2.37.07,4.81.07,7.24h6.34v-7.17c-2.21,0-4.34,0-6.41-.07-.06-2.26-.06-4.45-.06-6.64H57.32V233h6.75v-6.41H78c0,2.48,0,4.8,0,7.12a45.31,45.31,0,0,0,.17,6.8h7.33v6.4H78v7.68H71.41V240.74h-7.6v6.45H57.32c0,2.63,0,4.95,0,7.26s-.25,4.54.18,6.75H63.9v7.51H57.35v6.39H35.73c0-2.12,0-4.26.07-6.46,4.55-.06,9.17-.06,13.81-.06v-7.29H35.87C35.87,263.81,35.87,266.26,35.8,268.64Z"/>
          <path d="M218.84,49.92h7.51V35.84h34.5V29.39H247.22V21.87h21.33v14h6.63v14.1H268.6v-6.6c-2.72.1-5.13-.11-7.51.15v6.45c-2.19,0-4.38,0-6.64-.06-.07-2.06-.07-4.19-.07-6.31h-7.27v6.24c2.53,0,5,0,7.34.07.07,2.57.07,5.07.07,7.58H240.28v6.41h-7.54V57.44h-13.9Zm21.43-.07V43.33c-2.57.09-5-.12-7.19.12v6.4Z"/>
          <path d="M71.41,57.44H57.82a3.34,3.34,0,0,1-.33-.32.74.74,0,0,1-.16-.4c0-13.72,0-27.45,0-41.36h6.55V35.67h7.37v-6.4H85.49v6.57h6.58V49.92h7.51v7.61H92V64H85.49V57.44H78c0-2.51,0-5,.07-7.58,2.37-.07,4.81-.07,7.25-.07V43.45H78.12c0,2.22,0,4.35-.07,6.41-2.26.06-4.45.06-6.71,0-.07-2.06-.07-4.19-.07-6.31H64v6.24c2.53,0,5,0,7.34.07C71.41,52.43,71.41,54.93,71.41,57.44Z"/>
          <path d="M155.92,325.05v14h-7.48v6.52H134.38v-6.48H99.58v-7.51h6.72V317.68h7.51v7.52h6.59v6.26h7.52v-6.41c2.35,0,4.38,0,6.47.06.07,2.07.07,4.19.07,6.31h7.27v-6.24c-2.53,0-5,0-7.34-.07-.07-2.5-.07-4.94-.07-7.58h14.09v7.52Z"/>
          <path d="M226.35,85.61V78.09h6.7V71.43h14V64h7.46V57.44h6.57V71.52h-6.57c0,2.64,0,5,0,7.29a44,44,0,0,0,.17,6.8h13.9V99.69h-7.51V92.11c-2.4.21-4.52-.19-6.57.29v7.29H247V92.18H232.92V85.61Zm20.49-.09V78c-2.25.2-4.36-.21-6.24.24v7.24Z"/>
          <path d="M85.49,29.27V21.93a45.54,45.54,0,0,0-6.82-.16c-2.32-.05-4.64,0-7.12,0V7.8H64V.37H91.94V7.6H85.6V15h6.29v6.75h14.26V35.84H92.07V29.27Z"/>
          <path d="M21.64,113.78v6.57h21.6v7.51H35.73c0,2.63,0,5,0,7.27a45.41,45.41,0,0,1-.17,6.81h-6.4v-7.45H7.65V128H.26V113.78h7.3v6.6c2.72-.1,5.13.11,7.51-.15v-6.45Z"/>
          <path d="M134.32,218.94v21.29c-2,.76-4.18,0-6.43.48v-14H113.8V233h6.33v7.41H106.35V233H99.58v-6.74h6.73v-7.52h7.19v-6.58h-7.35v-7.33h13.91a44,44,0,0,1,.17,6.8c0,2.33,0,4.65,0,7.28Z"/>
          <path d="M141.84,127.86h-7.36c-.37-7.09,0-14.2-.2-21.46h7.33V99.78H128V92.23h20.42V85.69h14.12v6.49h-6.7v7.63h-7.38v20.54h-6.57Z"/>
          <path d="M127.75,78.09h-13.9a42.93,42.93,0,0,0-.17,6.81c-.05,2.32,0,4.65,0,7.28H99.58V85.61H85.49V78.09H99.58c0-2.62,0-4.94,0-7.26a48.67,48.67,0,0,1,.14-6.66h14.11v7.35h13.91Z"/>
          <path d="M289.26,64h7.37V57.58H331.3v6.36H317.62V78.07h7.32v7.54H310.86V77.93h-7.51c0-2.36,0-4.38.06-6.48,2.38-.06,4.82-.06,7.25-.06V64.11h-7.18c0,2.53,0,5-.07,7.34-4.76.07-9.45.07-14.15.07Z"/>
          <path d="M57.39,78.16c-.07-4.68-.07-9.3-.07-14h6.46v7.39h7.63V92.18H57.5v7.51H49.81V92.18H43.24V85.77h6.57V78.09c2.51,0,5,0,7.58.07.07,2.37.07,4.81.07,7.25H63.8V78.23C61.58,78.23,59.45,78.23,57.39,78.16Z"/>
          <path d="M325.11,85.61h6.23a47,47,0,0,0,.17-6.82c0-2.32,0-4.65,0-7.12h13.85V85.48h-6.12V99.59h6.15v14.07h-6.31V106.3h-7.55V92.19h-6.43Z"/>
          <path d="M99.58,190.77v7.34h6.57v6.75H99.41v7.37H71.64v-7.52h6.51v-6.58H92.24v-7.36Z"/>
          <path d="M85.49,141.94v-7.08a3.43,3.43,0,0,1,.33-.27.79.79,0,0,1,.4-.15h27.45v-6.57h6.39a45.31,45.31,0,0,1,.17,6.8c0,2.32,0,4.64,0,7.12h7.27v6.74H113.67V142h-14v6.36H92.2v-6.45Z"/>
          <path d="M35.73,226.45H29.31v-7.36H7.69v7.22H.26V212.37H49.81v6.57H35.73Z"/>
          <path d="M339.19,268.71h-7.52v-7.39h-6.51V254.7h6.3V240.64h14v20.54h-6.23Z"/>
          <path d="M7.56,113.78v-7.35H.2V92.3a64.46,64.46,0,0,1,7.13-.11c2.47,0,4.95,0,7.74,0V85.61h6.48v14H15.07v14.18Z"/>
          <path d="M21.64,247.11H7.56v-6.4H.2v-7.56A61.75,61.75,0,0,1,7.31,233c2.47,0,5,0,7.59,0v-6.3c2.21-.55,4.33-.13,6.58-.33v6.46H29v7.52H21.64Z"/>
          <path d="M282.85,29.19h-7.52V15.35h-6.57V7.83h13.77V.4h6.58V21.57h-6.26Z"/>
          <path d="M15.07,268.87v6.24a48.55,48.55,0,0,0,6.83.16c2.32.05,4.64,0,7.11,0v7.4H21.73v6.49H.15v-6.34H7.54v-14Z"/>
          <path d="M190.66,64h21.42V57.44h6.76V71.52H198.18v6.57H184.09V71.52h6.57Z"/>
          <path d="M226.35,35.84H205c-.44-2.21-.13-4.51-.19-6.78s0-4.64,0-7.14h-6.31c-.52-2.22-.12-4.34-.33-6.74h14.15v13.9h6.63V21.75h7.46Z"/>
          <path d="M43.4,71.52H29.3V64.13h-14V57.55H49.62V64H43.4Z"/>
          <path d="M303.35,113.78v14.08H289.26v-7.51h-6.57v-6.57h6.73v-7.36H297v7.36Z"/>
          <path d="M141.84,64v7.51H127.75V63.84h-7.51v-6.4h7.51c0-2.64,0-5,0-7.28a45.44,45.44,0,0,1,.17-6.81h6.39q0,10,0,20a.66.66,0,0,0,.19.38,1.87,1.87,0,0,0,.34.29Z"/>
          <path d="M120.24,170.11V184h-6.57v6.75H99.58V184.2h6.57V170.11Z"/>
          <path d="M247,339.13h-6.58V331.8a45.31,45.31,0,0,0-6.8-.17c-2.32-.05-4.65,0-7.28,0v-6.57h34.74v6.57H247Z"/>
          <path d="M148.24,261.2H113.91v-6.45h13.74v-7.52h6.63v7.37h14Z"/>
          <path d="M325,232.88v-6.27h13.86c.28-2.54.07-5,.16-7.53h-7.31v-6.57h13.64v20.37Z"/>
          <path d="M331.52,142.11v13.75a48.66,48.66,0,0,0,6.84.16c2.32,0,4.64,0,7.1,0V169.9H339.1v-7.25H325V142.11Z"/>
          <path d="M212.26,15.18V7.83H204.9V.39h21.45V15.18Z"/>
          <path d="M141.68,7.56H106.27V.36h35.41Z"/>
          <path d="M232.92,99.69H204.84V92.35h13.81V85.61h7.7v6.57h6.57Z"/>
          <path d="M339,303.45v14h6.37v7.59H331.52v-7.52h-6.58V311h6.75v-7.51Z"/>
          <path d="M43.24,240.54H35.73V226.45H49.81v-7.51h7.51V233H43.24Z"/>
          <path d="M155.92,226.61v6.27h6.43v7.55H156v6.48h-7.55v-13.7h-6.34c-.56-2.23-.13-4.35-.34-6.6Z"/>
          <path d="M324.94,198.28h6.4a45.31,45.31,0,0,0,.17-6.8c.05-2.32,0-4.64,0-7.12h13.9c.44,1.89,0,4,.24,6.26h-6.48v14.24H324.94Z"/>
          <path d="M331.52,141.94V120.35H339v7.43h6.5v6.54H339v7.62Z"/>
          <path d="M99.58,92.34v21.31c-2.39.27-4.81.06-7.39.15v-7.44H85.61V99.74H92v-7.4Z"/>
          <path d="M85.49,162.6v-6.48h14v6.48h6.69v7.51H92.07V162.6Z"/>
          <path d="M268.6,331.62v13.59a2.42,2.42,0,0,1-.31.33.81.81,0,0,1-.4.16H247v-6.57h14.08v-7.51Z"/>
          <path d="M71.41,71.52V57.44H78V64h7.51V78.09H77.81V71.52Z"/>
          <path d="M134.49,212.37h-6.64c-.21-7.1,0-14.2-.12-21.45h6.5v7.29h7.42v6.62h-7.16Z"/>
          <path d="M325,345.55v-6.26h13.83v-7.51h6.51v13.77Z"/>
          <ellipse cx="166.25" cy="102.98" rx="5.31" ry="15.27"/>
          <path d="M190.81,106.38h21.34v7.2H190.81Z"/>
          <path d="M113.52,127.74H92.18v-7.19h21.34Z"/>
          <path d="M317.43,106.26v7.52H303.35V99.69h7.51v6.57Z"/>
          <path d="M127.6,120.27h-7.21v-6.36h-6.58v-7.42H127.6Z"/>
          <path d="M99.58,233v7.51H85.49v-13.9h6.63V233Z"/>
          <path d="M120.24,162.6h14.08v14h-6.45v-6.46h-7.63Z"/>
          <path d="M106.15,162.6V148.52h7.52v7.34h6.57v6.74Z"/>
          <path d="M85.35,113.9v13.87h-7.2v-7.24H71.57v-6.61A137.68,137.68,0,0,1,85.35,113.9Z"/>
          <path d="M78,92.18v14H64.07V99.86h7.34V92.18Z"/>
          <path d="M218.67,339.13h7.52v6.34H212.42V331.81c1.89-.46,4,0,6.25-.25Z"/>
          <path d="M78,254.62h7.51v14.09H78Z"/>
          <path d="M49.81,120.35H63.73c.39,2.37,0,4.79.25,7.51H49.81Z"/>
          <path d="M198.32,78.22h13.83v7.19H198.32Z"/>
          <path d="M141.84,78.09v7.34a44.18,44.18,0,0,1-6.81.16c-2.32,0-4.64,0-7.28,0V78.09Z"/>
          <path d="M7.56,71.52h7.51V85.61H7.56Z"/>
          <path d="M7.48,190.94v13.75H.19a46.66,46.66,0,0,1-.14-6.63c0-2.32,0-4.64,0-7.12Z"/>
          <path d="M7.43,71.52H.24C-.2,69.32.11,67,.06,64.79s0-4.64,0-7.15H7.43Z"/>
          <path d="M190.81,331.74h13.83v7.19H190.81Z"/>
          <path d="M85.35,142.07v6.36H71.61v-6.36Z"/>
          <path d="M21.64,254.62v14.09H15.07V254.62Z"/>
          <path d="M331.52,120.35H317.43v-6.57h14.09Z"/>
          <path d="M170.15,92.06V85.69h13.74v6.37Z"/>
          <path d="M71.26,339.25v6.36H57.52v-6.36Z"/>
          <path d="M190.52,106.14H176.69V99.89h13.83Z"/>
          <ellipse cx="239.96" cy="102.98" rx="9.96" ry="4.65"/>
          <path d="M311,219.09h6.36v13.74H311Z"/>
          <path d="M21.78,113.64v-7.28H29v7.28Z"/>
          <path d="M233.05,15.05V7.77h7.18v7.28Z"/>
          <path d="M35.73,92.18h7.51v7.51H35.73Z"/>
          <path d="M233.05,21.89h7.28v7.18h-7.28Z"/>
          <path d="M176.58,339.13v-7.51h7.51v7.51Z"/>
          <path d="M324.94,204.86v7.39c-2.37.26-4.79.05-7.51.15v-7.54Z"/>
          <path d="M14.93,155.9H7.66v-7.18h7.27Z"/>
          <path d="M190.8,7.54V.26H198V7.54Z"/>
          <path d="M21.64,254.62v-7.51h7.51v7.51Z"/>
          <path d="M7.42,247.24v7.28H.24v-7.28Z"/>
          <path d="M317.43,190.77h7.51v7.51h-7.51Z"/>
          <path d="M282.69,49.92v7.52h-7.51V49.92Z"/>
          <path d="M113.8,190.91h6.34v7.17H113.8Z"/>
          <path d="M99.58,339.13v6.45c-2.38.27-4.79.05-7.51.15v-6.6Z"/>
          <path d="M155.92,15.18V7.67h6.57v7.51Z"/>
          <path d="M190.66,7.67v7.51h-6.57V7.67Z"/>
          <ellipse cx="215.55" cy="208.61" rx="4.65" ry="5.31"/>
          <path d="M134.32,218.94v-6.57h7.29c.48,2,.08,4.17.29,6.57Z"/>
          <path d="M134.46,162.47v-6.34h7.18v6.34Z"/>
          <path d="M176.45,233.16v7.27h-6.24v-7.27Z"/>
          <path d="M29.15,148.52H21.86c-.47-2.06-.08-4.17-.29-6.58h7.58Z"/>
          <path d="M317.59,240.62h7.2v6.26h-7.2Z"/>
          <path d="M190.51,254.54h-6.27v-7.19h6.27Z"/>
          <path d="M282.82,254.49v-7.28h6.24v7.28Z"/>
          <path d="M317.43,99.69h7.29c.49,2,0,4.17.34,6.57h-7.63Z"/>
          <path d="M226.35,78.09h-7.51V71.52h7.51Z"/>
          <path d="M240.3,339.26v6.35h-7.18v-6.35Z"/>
          <path d="M324.79,275.13h-7.27v-6.26h7.25A25.21,25.21,0,0,1,324.79,275.13Z"/>
          <path d="M85.49,85.61v6.57H78V85.61Z"/>
          <path d="M63.77,296.74H57.42v-7.18h6.35Z"/>
          <path d="M310.86,92.18h6.57v7.51h-6.57Z"/>
          <path d="M310.86,85.61v6.57h-7.51V85.61Z"/>
          <path d="M43.39,282.87h6.27v6.26H43.39Z"/>
          <path d="M49.81,99.69V106c-2.05.48-4.16.08-6.57.29V99.69Z"/>
          <path d="M339,275.28v-6.57h6.35c.48,2.05.08,4.16.29,6.57Z"/>
          <path d="M35.59,92H29.25V85.8h6.34Z"/>
          <path d="M141.84,71.52h6.35c.48,2,0,4.17.33,6.57h-6.68Z"/>
          <path d="M339,296.88h6.35c.48,2.05.08,4.16.29,6.57H339Z"/>
          <circle cx="46.53" cy="74.81" r="4.65"/>
          <path d="M43.24,120.35V114c2-.49,4.17,0,6.57-.34v6.69Z"/>
          <circle cx="285.98" cy="60.72" r="4.65"/>
          <path d="M311,261.06v-6.34h6.24v6.34Z"/>
          <path d="M303.21,261.06h-6.34v-6.24h6.34Z"/>
          <path d="M282.82,49.79V43.45h6.24v6.34Z"/>
          <path d="M49.81,127.86v6.57H43.24v-6.57Z"/>
          <path d="M296.91,240.67h6.34v6.24h-6.34Z"/>
          <path d="M218.7,49.79h-6.34V43.55h6.34Z"/>
          <path d="M339.16,142.08h6.34v6.24h-6.34Z"/>
          <path d="M176.58,331.62h-6.35c-.48-2.05-.08-4.17-.29-6.57h6.64Z"/>
          <circle cx="187.38" cy="328.33" r="4.65"/>
          <path d="M275.18,325.05v6.57H268.6v-6.57Z"/>
          <circle cx="229.63" cy="18.47" r="4.65"/>
          <path d="M317.43,204.86h-6.35c-.49-2.06,0-4.17-.33-6.58h6.68Z"/>
          <path d="M296.91,204.72v-6.34h6.24v6.34Z"/>
          <path d="M148.41,190.77h-6.35c-.49-2.05,0-4.17-.34-6.57h6.69Z"/>
          <path d="M176.45,339.26v6.34h-6.24v-6.34Z"/>
          <path d="M141.7,303.58v7.28h-7.18v-7.28Z"/>
          <path d="M92.07,331.62v-6.57h7.51v6.57Z"/>
          <path d="M99.71,289.5h6.34v7.18H99.71Z"/>
          <path d="M240.43,303.45V311H226.35v-7.51Z"/>
          <path d="M247,275.28h7.51v7.51H247Z"/>
          <path d="M247,268.71v6.57h-6.58v-6.57Z"/>
          <path d="M170.09,303.3V297h6.25v6.27Z"/>
          <path d="M218.84,204.86v-6.58h7.51v6.58Z"/>
          <path d="M218.84,156h13.9v6.57h7.69v7.34H247v6.75H233v-6.48H212.41v-7.46h6.43Z"/>
          <path d="M190.66,156v-7.51h7.4c.26,2.37.05,4.79.14,7.51Z"/>
          <path d="M198.31,170V162.7h6.24V170Z"/>
          <path d="M176.43,176.61h-6.27v-6.26h6.27Z"/>
          <path d="M204.75,198.28h7.51v6.58h-7.51Z"/>
          <path d="M162.49,113.78v6.57h-6.57v-6.57Z"/>
          <path d="M282.69,120.35v7.51h6.57v6.57h-6.57v7.51h-7.33V134.6h-6.5c-.51-2.22-.12-4.33-.31-6.58H275v-7.67Z"/>
          <path d="M247,106.26h7.51v7.35h6.41v14.06c-1.89.44-4,0-6.26.24v-7.42H247Z"/>
          <path d="M240.43,127.86h-7.51V113.78h7.51Z"/>
          <path d="M226.35,141.94v-7.51h14.08v7.51Z"/>
          <circle cx="264.85" cy="166.36" r="5.31"/>
          <circle cx="278.93" cy="110.02" r="5.31"/>
          <path d="M254.52,99.69h6.57v6.57h-6.57Z"/>
          <circle cx="271.89" cy="102.98" r="4.65"/>
          <path d="M240.43,134.43v-6.57h6.35c.49,2,0,4.17.34,6.57Z"/>
          <path d="M261,142.1v6.26h-6.25V142.1Z"/>
          <path d="M282.69,141.94h6.57v6.58h-6.57Z"/>
          <path d="M240.57,162.47v-6.34h6.24v6.34Z"/>
          <path d="M261,162.47h-6.34v-6.24H261Z"/>
          <path d="M275.18,162.6H268.6v-6.35c2.06-.47,4.17-.08,6.58-.29Z"/>
          <circle cx="257.8" cy="173.4" r="4.65"/>
          <path d="M296.77,176.51v-6.16c2.05-.5,4.16-.09,6.41-.29v6.45A25,25,0,0,1,296.77,176.51Z"/>
          <path d="M303.19,303.37h-6.26v-6.26h6.26Z"/>
          <circle cx="95.82" cy="180.44" r="5.31"/>
          <path d="M49.89,176.69H43.47c-.5-2.05-.08-4.16-.29-6.41h6.44C50.1,172.3,49.62,174.49,49.89,176.69Z"/>
          <path d="M63.9,261.2v-6.58h7.51v6.58Z"/>
          <path d="M120.24,57.44h-6.57V43.35h6.57Z"/>
          <path d="M106.15,43.35V35.84h7.52v7.51Z"/>
          <path d="M134.32,43.35V36c2.38-.26,4.79-.05,7.52-.15v7.54Z"/>
          <path d="M120.24,29.27h7.51v6.45c-2.37.26-4.79.05-7.51.15Z"/>
          <path d="M142,43.49h6.34v6.24H142Z"/>
          <path d="M170.16,43.43h6.26v6.25h-6.26Z"/>
          <path d="M15.15,35.68V15.34H35.57c.37,6.61,0,13.4.2,20.34Z"/>
          <path d="M310.94,35.68V15.34h20.52c.13,6.61,0,13.4.07,20.34Z"/>
          <path d="M35.57,331.54H15.23V311.09c6.61-.29,13.4,0,20.34-.15Z"/>
          <path d="M289.26,71.52V92c-2.22.42-4.52.13-6.79.18s-4.65,0-7.29,0V85.61h7.33a45.44,45.44,0,0,0,.17-6.81c.05-2.32,0-4.64,0-7.28Z"/>
          <path d="M268.6,85.61V78.26h-7.51V71.52h14.09V85.61Z"/>
          <path d="M261.09,57.44V49.92h7.51v7.52Z"/>
          <circle cx="102.87" cy="46.64" r="4.65"/>
          <path d="M303.35,92.18v7.51h-6.46c-.26-2.37,0-4.79-.14-7.51Z"/>
        </g>
      </g>
    </g>
  </g>
</svg>
